<svg xmlns="http://www.w3.org/2000/svg" height="36" viewBox="0 -960 960 960" width="36"><path fill="#8b0000" d="M199-399.893Q199-465 224.5-521.5t62.909-104.102q37.409-47.603 79.5-83.5Q409-745 441-768v60q0 54.987 36.918 86.994Q514.837-589 560.776-589q17.224 0 32.758-4.833Q609.068-598.667 624-607l24-20q53 42 83 101t30 125.52q0 96.48-56 168.98Q649-159 562-133q24.889-19.074 38.944-46.537Q615-207 615-237.778q0-25.222-10.034-50.091Q594.931-312.737 576-332l-96-93-95 93q-19 18-29.5 42.364Q345-265.273 345-238q0 31 14.056 58.463Q373.111-152.074 398-133q-87-26-143-98.645t-56-168.248ZM480-350l57.833 57.7Q549-281 555-267.545q6 13.454 6 29.545 0 32.602-23.708 55.801Q513.583-159 480-159t-57.292-23.199Q399-205.398 399-238q0-16 5.471-29.133Q409.943-280.267 422-292l58-58Z"/></svg>